<svg width="18" height="17" viewBox="0 0 18 17" fill="none" xmlns="http://www.w3.org/2000/svg">
<path d="M7.83342 9.83327L6.02091 8.02077C5.86814 7.86799 5.67703 7.79494 5.44758 7.80161C5.21814 7.80827 5.0273 7.88827 4.87508 8.0416C4.7223 8.19438 4.64591 8.38883 4.64591 8.62494C4.64591 8.86105 4.7223 9.05549 4.87508 9.20827L7.25008 11.5833C7.40286 11.736 7.5973 11.8124 7.83342 11.8124C8.06953 11.8124 8.26397 11.736 8.41675 11.5833L13.1459 6.85411C13.2987 6.70133 13.3717 6.51022 13.3651 6.28077C13.3584 6.05133 13.2784 5.86049 13.1251 5.70827C12.9723 5.55549 12.7779 5.47911 12.5417 5.47911C12.3056 5.47911 12.1112 5.55549 11.9584 5.70827L7.83342 9.83327ZM9.00008 16.6666C7.8473 16.6666 6.76397 16.4477 5.75008 16.0099C4.73619 15.5722 3.85425 14.9785 3.10425 14.2291C2.35425 13.4791 1.76064 12.5972 1.32341 11.5833C0.886193 10.5694 0.667304 9.48605 0.666748 8.33327C0.666748 7.18049 0.885637 6.09716 1.32341 5.08327C1.76119 4.06938 2.3548 3.18744 3.10425 2.43744C3.85425 1.68744 4.73619 1.09383 5.75008 0.656606C6.76397 0.219383 7.8473 0.00049452 9.00008 -6.10352e-05C10.1529 -6.10352e-05 11.2362 0.218828 12.2501 0.656606C13.264 1.09438 14.1459 1.68799 14.8959 2.43744C15.6459 3.18744 16.2398 4.06938 16.6776 5.08327C17.1154 6.09716 17.334 7.18049 17.3334 8.33327C17.3334 9.48605 17.1145 10.5694 16.6767 11.5833C16.239 12.5972 15.6454 13.4791 14.8959 14.2291C14.1459 14.9791 13.264 15.573 12.2501 16.0108C11.2362 16.4485 10.1529 16.6672 9.00008 16.6666ZM9.00008 14.9999C10.8473 14.9999 12.4204 14.3508 13.7192 13.0524C15.0181 11.7541 15.6673 10.181 15.6667 8.33327C15.6667 6.48605 15.0176 4.91299 13.7192 3.61411C12.4209 2.31522 10.8479 1.66605 9.00008 1.66661C7.15286 1.66661 5.5798 2.31577 4.28091 3.61411C2.98203 4.91244 2.33286 6.48549 2.33341 8.33327C2.33341 10.1805 2.98258 11.7535 4.28091 13.0524C5.57925 14.3513 7.1523 15.0005 9.00008 14.9999Z" fill="white"/>
</svg>
