<svg width="51" height="53" viewBox="0 0 51 53" fill="none" xmlns="http://www.w3.org/2000/svg">
<path d="M35.698 29.1252H15.1783C14.8527 29.1252 14.5969 28.8694 14.5969 28.5439C14.5969 28.2184 14.8527 27.9625 15.1783 27.9625H35.6868C36.0123 27.9625 36.2681 28.2184 36.2681 28.5439C36.2681 28.8694 36.0123 29.1252 35.6984 29.1252H35.698ZM35.698 25.0561H15.1783C14.8527 25.0561 14.5969 24.8003 14.5969 24.4748C14.5969 24.1493 14.8527 23.8934 15.1783 23.8934H35.6868C36.0123 23.8934 36.2681 24.1493 36.2681 24.4748C36.2681 24.8003 36.0123 25.0561 35.6984 25.0561H35.698Z" fill="#FAFF00"/>
<path d="M14.0274 34.4149H12.737C11.7838 34.4149 11.0046 33.6362 11.0046 32.6826V20.3468C11.0046 19.3936 11.7834 18.6145 12.737 18.6145H14.0274C14.9806 18.6145 15.7597 19.3932 15.7597 20.3468V32.6826C15.7597 33.6362 14.9923 34.4149 14.0274 34.4149ZM12.737 19.7772C12.4232 19.7772 12.1673 20.0331 12.1673 20.3469V32.6938C12.1673 33.0077 12.4232 33.2635 12.737 33.2635H14.0274C14.3412 33.2635 14.5971 33.0077 14.5971 32.6938V20.3469C14.5971 20.0331 14.3412 19.7772 14.0274 19.7772H12.737Z" fill="#FAFF00"/>
<path d="M10.4344 32.1484H9.14399C8.19078 32.1484 7.41162 31.3696 7.41162 30.416V22.6148C7.41162 21.6615 8.1904 20.8824 9.14399 20.8824H10.4344C11.3876 20.8824 12.1667 21.6612 12.1667 22.6148C12.1667 22.9403 11.9109 23.1961 11.5854 23.1961C11.2599 23.1961 11.004 22.9403 11.004 22.6148C11.004 22.3009 10.7482 22.0451 10.4344 22.0451L9.14398 22.0454C8.83013 22.0454 8.57431 22.3013 8.57431 22.6151V30.4164C8.57431 30.7303 8.83013 30.9861 9.14398 30.9861H10.4344C10.7482 30.9861 11.004 30.7303 11.004 30.4164C11.004 30.0909 11.2599 29.8351 11.5854 29.8351C11.9109 29.8351 12.1667 30.0909 12.1667 30.4164C12.1667 31.3696 11.388 32.1484 10.4344 32.1484Z" fill="#FAFF00"/>
<path d="M6.84208 30.5789H5.5517C4.59849 30.5789 3.81934 29.8001 3.81934 28.8465V24.1845C3.81934 23.2312 4.59811 22.4521 5.5517 22.4521H6.84208C7.79528 22.4521 8.57444 23.2309 8.57444 24.1845C8.57444 24.51 8.31862 24.7658 7.99309 24.7658C7.66757 24.7658 7.41174 24.51 7.41174 24.1845C7.41174 23.8706 7.15592 23.6148 6.84207 23.6148H5.55169C5.23784 23.6148 4.98202 23.8706 4.98202 24.1845V28.8465C4.98202 29.1604 5.23784 29.4162 5.55169 29.4162H6.84207C7.15592 29.4162 7.41174 29.1604 7.41174 28.8465C7.41174 28.521 7.66757 28.2652 7.99309 28.2652C8.31862 28.2652 8.57444 28.521 8.57444 28.8465C8.57444 29.8001 7.7953 30.5789 6.84208 30.5789Z" fill="#FAFF00"/>
<path d="M4.40091 29.1252H1.06426C0.738734 29.1252 0.48291 28.8694 0.48291 28.5439V24.4748C0.48291 24.1493 0.738734 23.8934 1.06426 23.8934H4.40091C4.72644 23.8934 4.98226 24.1493 4.98226 24.4748C4.98226 24.8003 4.72644 25.0561 4.40091 25.0561H1.64564V27.9625H4.40091C4.72644 27.9625 4.98226 28.2183 4.98226 28.5438C4.98226 28.8693 4.72644 29.1252 4.40091 29.1252Z" fill="#FAFF00"/>
<path d="M35.698 11.4531H15.1783C14.8527 11.4531 14.5969 11.1972 14.5969 10.8717C14.5969 10.5462 14.8527 10.2904 15.1783 10.2904H35.6868C36.0123 10.2904 36.2681 10.5462 36.2681 10.8717C36.2681 11.1972 36.0123 11.4531 35.6984 11.4531H35.698ZM35.698 7.38397H15.1783C14.8527 7.38397 14.5969 7.12815 14.5969 6.80262C14.5969 6.47709 14.8527 6.22127 15.1783 6.22127H35.6868C36.0123 6.22127 36.2681 6.47709 36.2681 6.80262C36.2681 7.12815 36.0123 7.38397 35.6984 7.38397H35.698Z" fill="#FAFF00"/>
<path d="M13.6321 16.7437H11.8998C10.7254 16.7437 9.77222 15.7905 9.77222 14.6162V3.05959C9.77222 1.88524 10.7254 0.932037 11.8998 0.932037H13.6321C14.8065 0.932037 15.7597 1.88524 15.7597 3.05959V14.604C15.7597 15.7897 14.8065 16.743 13.6321 16.743V16.7437ZM11.8998 2.0948C11.3651 2.0948 10.9349 2.52506 10.9349 3.05968V14.6041C10.9349 15.1388 11.3651 15.569 11.8998 15.569H13.6321C14.1668 15.569 14.597 15.1387 14.597 14.6041V3.05968C14.597 2.52504 14.1668 2.0948 13.6321 2.0948H11.8998Z" fill="#FAFF00"/>
<path d="M8.80669 13.047H7.07433C5.89998 13.047 4.94678 12.0938 4.94678 10.9194V6.75726C4.94678 5.58292 5.89998 4.62971 7.07433 4.62971H8.80669C9.98104 4.62971 10.9342 5.58292 10.9342 6.75726C10.9342 7.08279 10.6784 7.33862 10.3529 7.33862C10.0274 7.33862 9.77154 7.08279 9.77154 6.75726C9.77154 6.22263 9.34128 5.79238 8.80666 5.79238L7.07429 5.79201C6.53965 5.79201 6.1094 6.22228 6.1094 6.7569V10.9074C6.1094 11.442 6.53967 11.8722 7.07429 11.8722H8.80666C9.34129 11.8722 9.77154 11.442 9.77154 10.9074C9.77154 10.5818 10.0274 10.326 10.3529 10.326C10.6784 10.326 10.9342 10.5818 10.9342 10.9074C10.9342 12.0934 9.98104 13.047 8.80669 13.047Z" fill="#FAFF00"/>
<path d="M38.9773 16.7437H37.245C36.0706 16.7437 35.1174 15.7905 35.1174 14.6162V3.05959C35.1174 1.88524 36.0706 0.932037 37.245 0.932037H38.9773C40.1517 0.932037 41.1049 1.88524 41.1049 3.05959V14.604C41.1049 15.7897 40.1517 16.743 38.9773 16.743V16.7437ZM37.245 2.0948C36.7103 2.0948 36.2801 2.52506 36.2801 3.05968V14.6041C36.2801 15.1388 36.7104 15.569 37.245 15.569H38.9773C39.512 15.569 39.9422 15.1387 39.9422 14.6041V3.05968C39.9422 2.52504 39.512 2.0948 38.9773 2.0948H37.245Z" fill="#FAFF00"/>
<path d="M43.8138 13.047H42.0814C40.9071 13.047 39.9539 12.0938 39.9539 10.9194C39.9539 10.5939 40.2097 10.3381 40.5352 10.3381C40.8607 10.3381 41.1166 10.5939 41.1166 10.9194C41.1166 11.454 41.5468 11.8843 42.0814 11.8843H43.8138C44.3485 11.8843 44.7787 11.454 44.7787 10.9194V6.75726C44.7787 6.22263 44.3484 5.79238 43.8138 5.79238H42.0814C41.5468 5.79238 41.1166 6.22264 41.1166 6.75726C41.1166 7.08279 40.8607 7.33862 40.5352 7.33862C40.2097 7.33862 39.9539 7.08279 39.9539 6.75726C39.9539 5.58292 40.9071 4.62971 42.0814 4.62971H43.8138C44.9881 4.62971 45.9413 5.58292 45.9413 6.75726V10.9077C45.9413 12.0934 44.9877 13.047 43.8138 13.047Z" fill="#FAFF00"/>
<path d="M35.698 46.8086H15.1783C14.8527 46.8086 14.5969 46.5528 14.5969 46.2272C14.5969 45.9017 14.8527 45.6459 15.1783 45.6459H35.6868C36.0123 45.6459 36.2681 45.9017 36.2681 46.2272C36.2681 46.5528 36.0123 46.8086 35.6984 46.8086H35.698ZM35.698 42.7391H15.1783C14.8527 42.7391 14.5969 42.4833 14.5969 42.1578C14.5969 41.8322 14.8527 41.5764 15.1783 41.5764H35.6868C36.0123 41.5764 36.2681 41.8322 36.2681 42.1578C36.2681 42.4837 36.0123 42.7391 35.6984 42.7391H35.698Z" fill="#FAFF00"/>
<path d="M13.6321 52.0982H11.8998C10.7254 52.0982 9.77222 51.145 9.77222 49.9707V38.4263C9.77222 37.2519 10.7254 36.2987 11.8998 36.2987H13.6321C14.8065 36.2987 15.7597 37.2519 15.7597 38.4263V49.9707C15.7597 51.145 14.8065 52.0982 13.6321 52.0982ZM11.8998 37.4493C11.3651 37.4493 10.9349 37.8796 10.9349 38.4142V49.9586C10.9349 50.4933 11.3651 50.9235 11.8998 50.9235H13.6321C14.1668 50.9235 14.597 50.4933 14.597 49.9586V38.4142C14.597 37.8796 14.1668 37.4493 13.6321 37.4493H11.8998Z" fill="#FAFF00"/>
<path d="M8.80669 48.4015H7.07433C5.89998 48.4015 4.94678 47.4483 4.94678 46.2739V42.1235C4.94678 40.9491 5.89998 39.9959 7.07433 39.9959H8.80669C9.98104 39.9959 10.9342 40.9491 10.9342 42.1235C10.9342 42.449 10.6784 42.7048 10.3529 42.7048C10.0274 42.7048 9.77154 42.449 9.77154 42.1235C9.77154 41.5888 9.34128 41.1586 8.80666 41.1586H7.07429C6.53965 41.1586 6.1094 41.5888 6.1094 42.1235V46.2739C6.1094 46.8086 6.53967 47.2388 7.07429 47.2388H8.80666C9.34129 47.2388 9.77154 46.8085 9.77154 46.2739C9.77154 45.9484 10.0274 45.6926 10.3529 45.6926C10.6784 45.6926 10.9342 45.9484 10.9342 46.2739C10.9342 47.4483 9.98104 48.4015 8.80669 48.4015Z" fill="#FAFF00"/>
<path d="M38.9773 52.0982H37.245C36.0706 52.0982 35.1174 51.145 35.1174 49.9707V38.4263C35.1174 37.2519 36.0706 36.2987 37.245 36.2987H38.9773C40.1517 36.2987 41.1049 37.2519 41.1049 38.4263V49.9707C41.1049 51.145 40.1517 52.0982 38.9773 52.0982ZM37.245 37.4493C36.7103 37.4493 36.2801 37.8796 36.2801 38.4142V49.9586C36.2801 50.4933 36.7104 50.9235 37.245 50.9235H38.9773C39.512 50.9235 39.9422 50.4933 39.9422 49.9586V38.4142C39.9422 37.8796 39.512 37.4493 38.9773 37.4493H37.245Z" fill="#FAFF00"/>
<path d="M43.8138 48.4015H42.0814C40.9071 48.4015 39.9539 47.4483 39.9539 46.2739C39.9539 45.9484 40.2097 45.6926 40.5352 45.6926C40.8607 45.6926 41.1166 45.9484 41.1166 46.2739C41.1166 46.8086 41.5468 47.2388 42.0814 47.2388H43.8138C44.3485 47.2388 44.7787 46.8085 44.7787 46.2739V42.1235C44.7787 41.5888 44.3484 41.1586 43.8138 41.1586H42.0814C41.5468 41.1586 41.1166 41.5888 41.1166 42.1235C41.1166 42.449 40.8607 42.7048 40.5352 42.7048C40.2097 42.7048 39.9539 42.449 39.9539 42.1235C39.9539 40.9491 40.9071 39.9959 42.0814 39.9959H43.8138C44.9881 39.9959 45.9413 40.9491 45.9413 42.1235V46.2739C45.9413 47.4483 44.9877 48.4015 43.8138 48.4015Z" fill="#FAFF00"/>
<path d="M38.1402 34.4149H36.8498C35.8966 34.4149 35.1174 33.6362 35.1174 32.6826V20.3468C35.1174 19.3936 35.8962 18.6145 36.8498 18.6145H38.1402C39.0934 18.6145 39.8725 19.3932 39.8725 20.3468V32.6826C39.8725 33.6362 39.0938 34.4149 38.1402 34.4149ZM36.8498 19.7772C36.5359 19.7772 36.2801 20.0331 36.2801 20.3469V32.6938C36.2801 33.0077 36.5359 33.2635 36.8498 33.2635H38.1402C38.454 33.2635 38.7098 33.0077 38.7098 32.6938V20.3469C38.7098 20.0331 38.454 19.7772 38.1402 19.7772H36.8498Z" fill="#FAFF00"/>
<path d="M41.7322 32.1484H40.4418C39.4886 32.1484 38.7095 31.3696 38.7095 30.416C38.7095 30.0905 38.9653 29.8347 39.2908 29.8347C39.6164 29.8347 39.8722 30.0905 39.8722 30.416C39.8722 30.7299 40.128 30.9857 40.4418 30.9857H41.7322C42.0461 30.9857 42.3019 30.7299 42.3019 30.416V22.6148C42.3019 22.3009 42.0461 22.0451 41.7322 22.0451H40.4418C40.128 22.0451 39.8722 22.3009 39.8722 22.6148C39.8722 22.9403 39.6164 23.1961 39.2908 23.1961C38.9653 23.1961 38.7095 22.9403 38.7095 22.6148C38.7095 21.6615 39.4882 20.8824 40.4418 20.8824H41.7322C42.6854 20.8824 43.4646 21.6612 43.4646 22.6148V30.416C43.4646 31.3696 42.6858 32.1484 41.7322 32.1484Z" fill="#FAFF00"/>
<path d="M45.3245 30.5789H44.0341C43.0809 30.5789 42.3018 29.8001 42.3018 28.8465C42.3018 28.521 42.5576 28.2652 42.8831 28.2652C43.2086 28.2652 43.4645 28.521 43.4645 28.8465C43.4645 29.1604 43.7203 29.4162 44.0341 29.4162H45.3245C45.6384 29.4162 45.8942 29.1604 45.8942 28.8465V24.1845C45.8942 23.8706 45.6384 23.6148 45.3245 23.6148H44.0341C43.7203 23.6148 43.4645 23.8706 43.4645 24.1845C43.4645 24.51 43.2086 24.7658 42.8831 24.7658C42.5576 24.7658 42.3018 24.51 42.3018 24.1845C42.3018 23.2312 43.0805 22.4521 44.0341 22.4521H45.3245C46.2777 22.4521 47.0569 23.2309 47.0569 24.1845V28.8465C47.0569 29.8001 46.2781 30.5789 45.3245 30.5789Z" fill="#FAFF00"/>
<path d="M49.8125 29.1252H46.4759C46.1504 29.1252 45.8945 28.8693 45.8945 28.5438C45.8945 28.2183 46.1504 27.9625 46.4759 27.9625H49.2312V25.0561H46.4759C46.1504 25.0561 45.8945 24.8003 45.8945 24.4748C45.8945 24.1493 46.1504 23.8934 46.4759 23.8934H49.8125C50.1381 23.8934 50.3939 24.1493 50.3939 24.4748V28.5439C50.3939 28.8694 50.1381 29.1252 49.8125 29.1252Z" fill="#FAFF00"/>
</svg>
