<svg width="67" height="67" viewBox="0 0 67 67" fill="none" xmlns="http://www.w3.org/2000/svg">
<path d="M59.0117 23.7237C59.0117 29.9727 56.5292 35.966 52.1104 40.3848C47.6916 44.8036 41.6984 47.2858 35.4493 47.2858C29.2002 47.2858 23.2071 44.8037 18.7882 40.3848C14.3694 35.966 11.8872 29.9728 11.8872 23.7237C11.8872 17.4746 14.3693 11.4814 18.7882 7.0626C23.2071 2.64378 29.2002 0.161316 35.4493 0.161316C35.8561 0.161316 36.1855 0.491058 36.1855 0.897842C36.1855 1.30428 35.8561 1.63403 35.4493 1.63403C30.4484 1.633 25.5957 3.32862 21.6827 6.44319C17.7706 9.5581 15.0306 13.9081 13.9113 18.7819C12.7917 23.6558 13.3587 28.7652 15.5197 33.2752C17.6802 37.7851 21.3071 41.4284 25.8072 43.61C30.3072 45.7912 35.4144 46.3815 40.2926 45.2841C45.1716 44.1866 49.5343 41.4665 52.6663 37.5685C55.7991 33.6704 57.5166 28.825 57.5382 23.8247C57.5598 18.8237 55.8843 13.9632 52.7858 10.0387L52.592 11.9792C52.5544 12.3555 52.238 12.6421 51.8599 12.6425C51.836 12.6425 51.811 12.6425 51.786 12.6387C51.3812 12.5979 51.0861 12.237 51.1265 11.8327L51.4946 8.15103H51.4949C51.5353 7.74664 51.8959 7.45148 52.3003 7.49155L55.9788 7.8593C56.3836 7.90005 56.6787 8.26095 56.638 8.66568C56.5972 9.07007 56.2363 9.36523 55.8316 9.32448L53.949 9.1365H53.9493C57.2331 13.2893 59.017 18.43 59.0112 23.7245L59.0117 23.7237ZM35.4493 6.06243C40.1332 6.06243 44.6253 7.92314 47.937 11.2353C51.2487 14.5474 53.1099 19.0395 53.1099 23.723C53.1099 28.4065 51.2492 32.899 47.937 36.2107C44.6249 39.5224 40.1328 41.3836 35.4493 41.3836C30.7659 41.3836 26.2733 39.5229 22.9616 36.2107C19.6499 32.8986 17.7888 28.4065 17.7888 23.723C17.7939 19.0405 19.6567 14.5514 22.9674 11.2405C26.2782 7.92971 30.7672 6.06699 35.4499 6.0619L35.4493 6.06243ZM44.4903 13.6434L46.3558 11.7732C43.5655 9.21565 39.9643 7.72135 36.1831 7.55156V10.2025C36.1831 10.6093 35.8534 10.9387 35.4469 10.9387C35.0401 10.9387 34.7104 10.6093 34.7104 10.2025V7.55156C30.9295 7.7214 27.3283 9.21565 24.5377 11.7732L26.408 13.6431C26.6956 13.9307 26.6956 14.3971 26.408 14.6847C26.1204 14.9723 25.654 14.9723 25.3664 14.6847L23.4964 12.8144C20.9389 15.6048 19.4446 19.2059 19.2748 22.9871H21.9258C22.3322 22.9871 22.662 23.3165 22.662 23.7233C22.662 24.1301 22.3322 24.4595 21.9258 24.4595H19.2748C19.4447 28.2408 20.9389 31.8419 23.4964 34.6321L25.3664 32.7667C25.5037 32.6249 25.692 32.5438 25.8896 32.5424C26.0871 32.5407 26.2772 32.6184 26.4165 32.7581C26.5562 32.8979 26.6336 33.0879 26.6319 33.2855C26.6302 33.4827 26.549 33.6714 26.4069 33.8083L24.5377 35.6738C27.3277 38.2313 30.9285 39.7259 34.7095 39.8954V37.2448C34.7095 36.838 35.0393 36.5082 35.4457 36.5082C35.8525 36.5082 36.1822 36.838 36.1822 37.2448V39.8954C39.9635 39.7255 43.5643 38.2313 46.3549 35.6738L44.4895 33.8083H44.4898C44.2022 33.5207 44.2022 33.0543 44.4898 32.7667C44.7774 32.479 45.2438 32.4791 45.5314 32.7667L47.3969 34.6321H47.3965C49.954 31.8418 51.4487 28.2407 51.6181 24.4595H48.9675C48.5608 24.4595 48.2314 24.13 48.2314 23.7233C48.2314 23.3165 48.5608 22.9871 48.9675 22.9871H51.6181C51.4486 19.2058 49.9544 15.605 47.3965 12.8153L45.5311 14.6845H45.5314C45.2424 14.9636 44.7833 14.9598 44.4991 14.6759C44.2149 14.3921 44.2108 13.9329 44.4899 13.6436L44.4903 13.6434ZM40.7444 27.9772V27.9775C41.032 28.2652 41.032 28.7312 40.7444 29.0188C40.4564 29.3064 39.9904 29.3061 39.7027 29.0185L36.382 25.6977C35.8413 25.9535 35.2198 25.9765 34.6617 25.7614C34.1039 25.5464 33.6585 25.1119 33.4297 24.5592C33.201 24.0069 33.2088 23.3848 33.4513 22.8379C33.6937 22.2914 34.1498 21.8682 34.7131 21.6672V14.4748C34.7131 14.068 35.0425 13.7383 35.4493 13.7383C35.8561 13.7383 36.1855 14.068 36.1855 14.4748V21.6672C36.7662 21.8744 37.2319 22.3178 37.4675 22.8872C37.7034 23.4567 37.6876 24.0994 37.4236 24.6565L40.7444 27.9772ZM35.4493 24.4353C35.7373 24.4353 35.9968 24.2617 36.1068 23.9956C36.217 23.7299 36.1561 23.4238 35.9527 23.2201C35.7489 23.0167 35.4428 22.9557 35.1771 23.066C34.911 23.1759 34.7374 23.4355 34.7374 23.7234C34.7381 24.1162 35.0566 24.4346 35.4493 24.4353Z" fill="#FAFF00"/>
</svg>
