<svg width="14" height="18" viewBox="0 0 14 18" fill="none" xmlns="http://www.w3.org/2000/svg">
<path d="M1.6424 5.57257C1.40365 4.00007 2.5124 2.58757 4.20615 2.07007C4.50672 1.97818 4.83102 2.00433 5.11297 2.14322C5.39492 2.28211 5.61331 2.52327 5.72365 2.81757L6.2674 4.26757C6.35493 4.50084 6.37076 4.75494 6.31285 4.99727C6.25494 5.23959 6.12594 5.45909 5.9424 5.62757L4.3249 7.10882C4.24517 7.18199 4.18576 7.27457 4.15246 7.37753C4.11916 7.48049 4.11311 7.59033 4.1349 7.69632L4.1499 7.76132L4.18865 7.92382C4.3898 8.71338 4.69631 9.47227 5.0999 10.1801C5.53954 10.9322 6.08513 11.6171 6.7199 12.2138L6.7699 12.2588C6.85065 12.3305 6.94859 12.38 7.05418 12.4026C7.15977 12.4252 7.2694 12.42 7.3724 12.3876L9.46365 11.7288C9.70131 11.6542 9.95585 11.6523 10.1946 11.7233C10.4334 11.7944 10.6454 11.9352 10.8036 12.1276L11.7936 13.3288C12.2061 13.8288 12.1561 14.5638 11.6824 15.0051C10.3861 16.2138 8.60365 16.4613 7.36365 15.4651C5.84368 14.239 4.56234 12.7437 3.58365 11.0538C2.59701 9.36525 1.93922 7.50561 1.6424 5.57257ZM5.44615 7.77882L6.78615 6.54882C7.15344 6.21199 7.41169 5.77308 7.52773 5.28842C7.64377 4.80376 7.61232 4.29547 7.4374 3.82882L6.8949 2.37882C6.67283 1.78663 6.23331 1.3014 5.66592 1.022C5.09852 0.742595 4.44594 0.690051 3.84115 0.875073C1.7374 1.51882 0.0486468 3.40507 0.406147 5.76132C0.656147 7.40632 1.2324 9.49882 2.50365 11.6838C3.55954 13.5059 4.94172 15.1182 6.58115 16.4401C8.44115 17.9338 10.9236 17.4238 12.5361 15.9213C12.9975 15.4917 13.2776 14.9022 13.3192 14.2732C13.3608 13.6441 13.1607 13.0229 12.7599 12.5363L11.7699 11.3338C11.4532 10.9494 11.0289 10.6684 10.5514 10.5267C10.0739 10.3851 9.56498 10.3893 9.0899 10.5388L7.35365 11.0851C6.90536 10.6229 6.51269 10.1098 6.18365 9.55632C5.8658 8.99677 5.6181 8.4002 5.44615 7.78007V7.77882Z" fill="white"/>
</svg>
