<svg width="49" height="48" viewBox="0 0 49 48" fill="none" xmlns="http://www.w3.org/2000/svg">
<path d="M48.0117 23.7237C48.0117 29.9727 45.5292 35.966 41.1104 40.3848C36.6916 44.8036 30.6984 47.2858 24.4493 47.2858C18.2002 47.2858 12.2071 44.8037 7.78823 40.3848C3.36941 35.966 0.887207 29.9728 0.887207 23.7237C0.887207 17.4746 3.36932 11.4814 7.78823 7.0626C12.2071 2.64378 18.2002 0.161316 24.4493 0.161316C24.8561 0.161316 25.1855 0.491058 25.1855 0.897842C25.1855 1.30428 24.8561 1.63403 24.4493 1.63403C19.4484 1.633 14.5957 3.32862 10.6827 6.44319C6.77061 9.5581 4.03061 13.9081 2.91131 18.7819C1.79166 23.6558 2.35865 28.7652 4.51965 33.2752C6.68024 37.7851 10.3071 41.4284 14.8072 43.61C19.3072 45.7912 24.4144 46.3815 29.2926 45.2841C34.1716 44.1866 38.5343 41.4665 41.6663 37.5685C44.7991 33.6704 46.5166 28.825 46.5382 23.8247C46.5598 18.8237 44.8843 13.9632 41.7858 10.0387L41.592 11.9792C41.5544 12.3555 41.238 12.6421 40.8599 12.6425C40.836 12.6425 40.811 12.6425 40.786 12.6387C40.3812 12.5979 40.0861 12.237 40.1265 11.8327L40.4946 8.15103H40.4949C40.5353 7.74664 40.8959 7.45148 41.3003 7.49155L44.9788 7.8593C45.3836 7.90005 45.6787 8.26095 45.638 8.66568C45.5972 9.07007 45.2363 9.36523 44.8316 9.32448L42.949 9.1365H42.9493C46.2331 13.2893 48.017 18.43 48.0112 23.7245L48.0117 23.7237ZM24.4493 6.06243C29.1332 6.06243 33.6253 7.92314 36.937 11.2353C40.2487 14.5474 42.1099 19.0395 42.1099 23.723C42.1099 28.4065 40.2492 32.899 36.937 36.2107C33.6249 39.5224 29.1328 41.3836 24.4493 41.3836C19.7659 41.3836 15.2733 39.5229 11.9616 36.2107C8.64991 32.8986 6.78876 28.4065 6.78876 23.723C6.7939 19.0405 8.65666 14.5514 11.9674 11.2405C15.2782 7.92971 19.7672 6.06699 24.4499 6.0619L24.4493 6.06243ZM33.4903 13.6434L35.3558 11.7732C32.5655 9.21565 28.9643 7.72135 25.1831 7.55156V10.2025C25.1831 10.6093 24.8534 10.9387 24.4469 10.9387C24.0401 10.9387 23.7104 10.6093 23.7104 10.2025V7.55156C19.9295 7.7214 16.3283 9.21565 13.5377 11.7732L15.408 13.6431C15.6956 13.9307 15.6956 14.3971 15.408 14.6847C15.1204 14.9723 14.654 14.9723 14.3664 14.6847L12.4964 12.8144C9.93894 15.6048 8.44464 19.2059 8.27485 22.9871H10.9258C11.3322 22.9871 11.662 23.3165 11.662 23.7233C11.662 24.1301 11.3322 24.4595 10.9258 24.4595H8.27485C8.44468 28.2408 9.93894 31.8419 12.4964 34.6321L14.3664 32.7667C14.5037 32.6249 14.692 32.5438 14.8896 32.5424C15.0871 32.5407 15.2772 32.6184 15.4165 32.7581C15.5562 32.8979 15.6336 33.0879 15.6319 33.2855C15.6302 33.4827 15.549 33.6714 15.4069 33.8083L13.5377 35.6738C16.3277 38.2313 19.9285 39.7259 23.7095 39.8954V37.2448C23.7095 36.838 24.0393 36.5082 24.4457 36.5082C24.8525 36.5082 25.1822 36.838 25.1822 37.2448V39.8954C28.9635 39.7255 32.5643 38.2313 35.3549 35.6738L33.4895 33.8083H33.4898C33.2022 33.5207 33.2022 33.0543 33.4898 32.7667C33.7774 32.479 34.2438 32.4791 34.5314 32.7667L36.3969 34.6321H36.3965C38.954 31.8418 40.4487 28.2407 40.6181 24.4595H37.9675C37.5608 24.4595 37.2314 24.13 37.2314 23.7233C37.2314 23.3165 37.5608 22.9871 37.9675 22.9871H40.6181C40.4486 19.2058 38.9544 15.605 36.3965 12.8153L34.5311 14.6845H34.5314C34.2424 14.9636 33.7833 14.9598 33.4991 14.6759C33.2149 14.3921 33.2108 13.9329 33.4899 13.6436L33.4903 13.6434ZM29.7444 27.9772V27.9775C30.032 28.2652 30.032 28.7312 29.7444 29.0188C29.4564 29.3064 28.9904 29.3061 28.7027 29.0185L25.382 25.6977C24.8413 25.9535 24.2198 25.9765 23.6617 25.7614C23.1039 25.5464 22.6585 25.1119 22.4297 24.5592C22.201 24.0069 22.2088 23.3848 22.4513 22.8379C22.6937 22.2914 23.1498 21.8682 23.7131 21.6672V14.4748C23.7131 14.068 24.0425 13.7383 24.4493 13.7383C24.8561 13.7383 25.1855 14.068 25.1855 14.4748V21.6672C25.7662 21.8744 26.2319 22.3178 26.4675 22.8872C26.7034 23.4567 26.6876 24.0994 26.4236 24.6565L29.7444 27.9772ZM24.4493 24.4353C24.7373 24.4353 24.9968 24.2617 25.1068 23.9956C25.217 23.7299 25.1561 23.4238 24.9527 23.2201C24.7489 23.0167 24.4428 22.9557 24.1771 23.066C23.911 23.1759 23.7374 23.4355 23.7374 23.7234C23.7381 24.1162 24.0566 24.4346 24.4493 24.4353Z" fill="#FAFF00"/>
</svg>
